<?xml version="1.0" standalone="no"?>
<!DOCTYPE svg PUBLIC "-//W3C//DTD SVG 20010904//EN"
 "http://www.w3.org/TR/2001/REC-SVG-20010904/DTD/svg10.dtd">
<svg version="1.0" xmlns="http://www.w3.org/2000/svg"
 width="851.000000pt" height="170.000000pt" viewBox="0 0 851.000000 170.000000"
 preserveAspectRatio="xMidYMid meet">

<g transform="translate(0.000000,170.000000) scale(0.100000,-0.100000)"
fill="#000000" stroke="none">
<path d="M4680 1525 l0 -145 170 0 170 0 0 145 0 145 -170 0 -170 0 0 -145z"/>
<path d="M635 1614 c-236 -51 -406 -215 -471 -454 -24 -88 -24 -288 -1 -385
57 -228 219 -393 442 -450 185 -47 407 -20 568 70 73 41 73 39 17 167 l-51
115 -72 -38 c-172 -90 -346 -92 -459 -6 -29 22 -55 56 -78 101 l-35 69 0 161
c0 157 1 163 29 224 37 79 96 133 172 157 114 36 315 0 415 -74 l27 -20 52
121 c43 98 50 122 39 129 -59 40 -112 66 -187 91 -73 25 -107 30 -212 34 -88
3 -146 -1 -195 -12z"/>
<path d="M1400 965 l0 -645 165 0 165 0 0 284 c0 277 0 284 23 316 12 18 33
41 47 51 32 24 98 30 139 13 57 -24 61 -48 61 -374 l0 -290 166 0 165 0 -4
333 c-4 344 -7 370 -50 453 -19 37 -72 87 -117 110 -28 15 -57 19 -150 19
-105 0 -119 -3 -165 -27 -28 -14 -65 -41 -83 -59 l-32 -33 0 247 0 247 -165 0
-165 0 0 -645z"/>
<path d="M3620 965 l0 -645 160 0 160 0 0 186 c0 103 4 184 9 182 5 -2 49 -52
98 -113 49 -60 144 -173 211 -250 l123 -140 -2118 -5 -2118 -5 0 -80 0 -80
4115 0 4115 0 0 80 0 80 -1811 3 -1811 2 -129 166 c-71 92 -153 196 -182 233
-28 36 -77 99 -108 138 l-56 73 38 47 c21 27 98 121 171 210 73 89 133 164
133 167 0 3 -85 6 -189 6 l-189 0 -144 -179 c-78 -99 -146 -180 -150 -180 -5
-1 -8 168 -8 374 l0 375 -160 0 -160 0 0 -645z"/>
<path d="M5705 1231 c-50 -13 -98 -41 -142 -84 l-43 -41 0 57 0 57 -160 0
-160 0 0 -450 0 -450 165 0 164 0 3 289 c3 274 4 291 24 318 29 40 98 73 141
67 99 -12 103 -27 103 -384 l0 -290 165 0 165 0 0 299 c0 385 -15 466 -102
547 -56 54 -94 67 -198 70 -52 2 -108 0 -125 -5z"/>
<path d="M7337 1223 c-27 -9 -71 -36 -98 -61 l-49 -44 0 51 0 51 -160 0 -160
0 0 -450 0 -450 165 0 165 0 0 278 c0 268 1 279 23 322 40 81 133 103 188 44
l24 -26 3 -309 3 -309 165 0 164 0 0 280 c0 262 1 283 20 320 27 52 61 73 117
72 35 0 52 -6 72 -26 l26 -26 3 -310 3 -310 158 0 c119 0 160 3 164 13 10 26
8 565 -3 632 -13 89 -59 185 -105 220 -58 44 -115 58 -214 53 -108 -5 -181
-37 -241 -105 -22 -25 -41 -44 -43 -42 -2 2 -15 23 -30 46 -15 23 -47 54 -73
69 -40 23 -59 28 -143 31 -71 2 -108 -1 -144 -14z"/>
<path d="M2510 910 c0 -187 4 -330 11 -362 33 -159 138 -240 314 -242 106 -1
157 18 229 84 l46 43 0 -57 0 -57 158 3 c86 2 156 6 155 11 -2 4 -3 205 -3
447 l0 440 -160 0 -160 0 0 -267 c0 -300 -6 -327 -71 -374 -39 -28 -125 -33
-154 -9 -41 34 -45 67 -45 365 l0 285 -160 0 -160 0 0 -310z"/>
<path d="M4680 770 l0 -450 165 0 165 0 0 450 0 450 -165 0 -165 0 0 -450z"/>
<path d="M6447 1050 c-127 -32 -206 -141 -194 -270 6 -69 25 -109 78 -160 115
-111 303 -84 386 57 34 58 43 155 19 217 -42 111 -177 183 -289 156z"/>
</g>
</svg>
